# xmcd
#
# Track frame offsets:
#	150
#	18381
#	34137
#	46825
#	65888
#	77996
#	92502
#	109708
#	128297
#	141708
#	155082
#	172016
#	177062
#
# Disc length: 2568 seconds
#
# Revision: 1
# Processed by: cddbd v1.5.2PL0 Copyright (c) Steve Scherf et al.
# Submitted via: audiograbber 1.83.01
#
DISCID=ae0a060d
DTITLE=Ned LeDoux - Next in Line
DYEAR=2019
DGENRE=Country
TTITLE0=Old Fashioned
TTITLE1=Worth It
TTITLE2=Dance with Your Spurs On
TTITLE3=Next in Line
TTITLE4=A Cowboy is All
TTITLE5=Where You Belong
TTITLE6=Travel Alone
TTITLE7=Path of Broken Dreams
TTITLE8=Just a Little Bit Better
TTITLE9=Almost Saturday Night
TTITLE10=Great Plains
TTITLE11=Chris Ledoux Intro
TTITLE12=Homegrown Western Saturday Night
EXTD=
EXTT0=
EXTT1=
EXTT2=
EXTT3=
EXTT4=
EXTT5=
EXTT6=
EXTT7=
EXTT8=
EXTT9=
EXTT10=
EXTT11=
EXTT12=
PLAYORDER=
